<?xml version="1.0" standalone="no"?>
<!DOCTYPE svg PUBLIC "-//W3C//DTD SVG 20010904//EN"
 "http://www.w3.org/TR/2001/REC-SVG-20010904/DTD/svg10.dtd">
<svg version="1.0" xmlns="http://www.w3.org/2000/svg"
 width="150.000000pt" height="150.000000pt" viewBox="0 0 150.000000 150.000000"
 preserveAspectRatio="xMidYMid meet">

<g transform="translate(0.000000,150.000000) scale(0.100000,-0.100000)"
fill="#000000" stroke="none">
<path d="M745 1106 c-101 -44 -125 -178 -46 -257 65 -65 157 -65 222 0 124
124 -15 327 -176 257z"/>
<path d="M586 1043 c-81 -123 -15 -277 147 -340 128 -50 199 -144 183 -243
l-5 -35 19 23 c10 13 22 42 25 65 14 91 -58 183 -178 228 -70 26 -143 87 -163
136 -17 39 -18 146 -3 175 20 37 1 30 -25 -9z"/>
<path d="M550 640 c1 -47 7 -102 14 -123 39 -109 150 -171 259 -144 22 6 27
13 27 40 -1 76 -58 148 -165 206 -33 18 -77 49 -97 69 l-38 36 0 -84z"/>
</g>
</svg>
